<?xml  version="1.0" encoding="UTF-8"?>
<!DOCTYPE svg PUBLIC "-//W3C//DTD SVG 1.0//EN" "http://www.w3.org/TR/2001/REC-SVG-20010904/DTD/svg10.dtd" >
<svg xmlns="http://www.w3.org/2000/svg" >
<metadata>
<version>1.0</version>
<id><![CDATA[Proxima N W01 At Cd Xbold It]]></id>
<vendor>Monotype Imaging Inc.</vendor>
<credits>
<name>Fonts.com WebFonts</name>
<URL>http://webfonts.fonts.com</URL>
<role>Home of the Web fonts</role>
</credits>
<license>
<URL>http://webfonts.fonts.com/Legal</URL>
</license>
<copyright><![CDATA[Copyright (c) Mark Simonson, 2005. All rights reserved.]]></copyright>
<trademark><![CDATA[Proxima Nova is a trademark of Mark Simonson.]]></trademark>
<licensee>
<name></name>
</licensee>
</metadata>
<defs >
<font horiz-adv-x="475" id="01cde849-ee46-479c-86f5-ae38e6b54541">
<font-face font-family="" panose-1="2 0 5 6 3 0 0 2 0 4" ascent="741" descent="-259" units-per-em="1000" alphabetic="0">
</font-face>
<missing-glyph horiz-adv-x="0" />

<glyph unicode="&#xA;" />
<glyph unicode="&#xD;" horiz-adv-x="0" />
<glyph unicode=" " horiz-adv-x="206" />
<glyph unicode="!" horiz-adv-x="264" d="M64 227L138 667H311L192 227H64ZM86 -12Q52 -12 29 12T5 70Q5 90 13 107T34 138T65 159T103 167Q137 167 160 143T184 85Q184 65 176 48T155 17T124 -4T86 -12Z"  />
<glyph unicode="&quot;" horiz-adv-x="427" d="M112 364Q113 421 114 469Q115 510 116 545T117 588Q118 626 143 651T205 677Q232 677 252 658T272 608Q272 598 270 590T265 576Q263 573 259 562T247 536T232 501T216 463Q197 418 173 364H112ZM306 364Q307 421 308 469Q309 510 310 545T311 588Q311 626 336 651T399 677Q426 677 446 658T466 608Q466 598 463 590T458 576Q457 573 453 562T441 536T426 501T410 463Q391 418 367 364H306Z"  />
<glyph unicode="#" horiz-adv-x="552" d="M163 0L248 166H174L91 0H-14L70 166H-3L42 256H116L194 410H119L163 500H239L322 667H427L344 500H416L499 667H604L520 500H594L551 410H475L397 256H474L430 166H351L268 0H163ZM370 410H298L221 256H292L370 410Z"  />
<glyph unicode="$" horiz-adv-x="521" d="M159 -3Q104 8 60 32T-10 92L84 212Q110 175 155 153T250 131Q285 131 303 149T322 191Q322 210 304 224T260 253T202 284T144 323T99 376T81 450Q81 493 97 532T143 603T215 654T310 677L331 768H436L413 667Q455 657 491 637T554 588L462 470Q434 502 394 518T316 535Q286 535 269 519T252 481Q252 463 270 449T314 420T372 389T429 350T474 297T492 224Q492 178 476 137T431 64T359 12T263 -11L243 -100H138L159 -3Z"  />
<glyph unicode="%" horiz-adv-x="683" d="M76 0L577 667H648L146 0H76ZM473 -12Q443 -12 417 -3T372 24T342 66T331 121Q331 164 345 201T383 265T438 307T505 322Q535 322 561 313T606 285T636 243T647 188Q647 145 633 109T594 45T539 3T473 -12ZM478 75Q491 75 504 83T527 105T544 138T550 179Q550 205 537 219T500 234Q486 234 474 226T451 205T434 172T428 130Q428 104 441 90T478 75ZM216 343Q186 343 160 352T115 380T85 422T74 477Q74 520 88 557T126 620T181 662T248 677Q278 677 304 668T349 641T379 599T390 544Q390 500 376 464T337 400T282 358T216 343ZM221 431Q234 431 247 439T270 460T287 493T293 535Q293 561 280 575T243 590Q229 590 217 582T194 560T177 527T171 486Q171 460 184 446T221 431Z"  />
<glyph unicode="&amp;" horiz-adv-x="565" d="M346 0Q342 7 338 13T330 28Q297 9 262 -1T189 -12Q148 -12 114 -2T54 29T15 81T0 156Q0 204 14 239T53 302T108 348T173 383Q167 409 164 433T160 480Q160 522 175 558T217 620T278 662T354 677Q387 677 416 668T466 642T500 598T513 538Q513 496 497 466T455 414T395 375T328 343Q338 316 352 289Q367 254 382 223Q402 251 419 278T449 332L550 269Q524 227 496 188T436 115Q451 88 467 60T502 0H346ZM220 100Q248 100 279 120Q267 142 257 162T239 201Q230 221 223 240T207 279Q182 260 167 236T152 177Q152 142 171 121T220 100ZM294 481Q294 456 298 436Q336 453 361 475T387 530Q387 554 377 564T351 575Q329 575 312 549T294 481Z"  />
<glyph unicode="&apos;" horiz-adv-x="234" d="M112 364Q113 421 114 469Q115 510 116 545T117 588Q118 626 143 651T205 677Q232 677 252 658T272 608Q272 598 270 590T265 576Q263 573 259 562T247 536T232 501T216 463Q197 418 173 364H112Z"  />
<glyph unicode="(" horiz-adv-x="302" d="M88 -199Q56 -142 40 -68T24 84Q24 169 42 250T93 408T174 554T282 685L368 617Q323 555 287 485T226 339T188 186T174 31Q174 12 176 -11T181 -59T188 -107T198 -150L88 -199Z"  />
<glyph unicode=")" horiz-adv-x="303" d="M214 685Q246 628 262 554T278 402Q278 317 260 236T209 78T128 -68T20 -199L-66 -131Q-21 -69 15 1T76 147T114 300T128 455Q128 474 126 497T121 545T114 592T104 636L214 685Z"  />
<glyph unicode="*" horiz-adv-x="344" d="M162 359L191 471L87 424L67 486L173 524L89 583L136 638L213 571L233 677H303L272 565L376 612L396 549L292 511L375 453L327 398L250 464L232 359H162Z"  />
<glyph unicode="+" horiz-adv-x="446" d="M282 294L244 124H148L186 294H40L59 381H205L241 543H337L301 381H447L428 294H282Z"  />
<glyph unicode="&#x2c;" horiz-adv-x="265" d="M189 78Q189 48 177 17T144 -42T95 -94T32 -134L-18 -82Q-5 -76 10 -68T40 -48T66 -25T85 2Q83 1 79 1T73 1Q46 1 26 19T5 73Q5 92 13 109T36 139T67 159T104 167Q137 167 163 145T189 78Z"  />
<glyph unicode="-" horiz-adv-x="273" d="M16 181L43 303H255L229 181H16Z"  />
<glyph unicode="." horiz-adv-x="264" d="M87 -12Q52 -12 29 12T6 70Q6 90 14 107T35 138T65 159T103 167Q138 167 161 143T185 85Q185 65 177 48T156 17T125 -4T87 -12Z"  />
<glyph unicode="/" horiz-adv-x="293" d="M-60 -20L288 687H393L44 -20H-60Z"  />
<glyph unicode="0" horiz-adv-x="553" d="M246 -12Q199 -12 160 4T92 53T48 132T32 240Q32 323 55 401T120 541T219 640T345 677Q393 677 432 661T499 613T543 534T559 426Q559 343 536 264T471 124T372 25T246 -12ZM261 131Q282 131 301 147T335 190T362 250T382 319T394 386T398 444Q398 484 383 509T330 534Q308 534 290 518T256 476T229 416T209 347T196 280T192 222Q192 182 207 157T261 131Z"  />
<glyph unicode="1" horiz-adv-x="411" d="M142 0L244 460L122 359L52 455L311 667H451L304 0H142Z"  />
<glyph unicode="2" horiz-adv-x="540" d="M-14 0L20 155Q112 216 181 263T296 347T365 414T388 472Q388 501 364 518T301 535Q259 535 225 521T162 478L91 589Q133 629 191 653T316 677Q365 677 409 665T485 628T537 569T556 488Q556 441 537 400T479 317T384 233T256 141H483L452 0H-14Z"  />
<glyph unicode="3" horiz-adv-x="536" d="M250 -12Q208 -12 167 -3T90 23T27 66T-17 125L99 216Q123 174 165 153T249 131Q296 131 318 156T340 212Q340 237 319 252T250 267Q233 267 214 267T187 265L219 409Q222 409 232 409T253 408T276 408T293 408Q339 408 364 427T390 478Q390 505 364 519T292 534Q259 534 225 522T165 487L96 590Q136 628 191 652T314 677Q368 677 412 666T489 634T538 581T556 510Q556 475 542 446T503 394T449 357T388 338Q441 323 469 287T498 199Q498 154 479 115T426 48T347 4T250 -12Z"  />
<glyph unicode="4" horiz-adv-x="543" d="M242 0L270 128H-7L26 275L337 667H551L463 269H528L497 128H432L404 0H242ZM353 504L169 269H301L353 504Z"  />
<glyph unicode="5" horiz-adv-x="548" d="M256 -12Q163 -12 99 22T0 118L118 212Q139 174 175 153T256 131Q279 131 297 139T329 161T349 193T356 232Q356 264 333 282T267 301Q235 301 213 291T170 261L63 300L143 667H576L544 526H274L244 389Q267 411 294 421T359 431Q394 431 424 419T477 385T512 329T525 254Q525 201 506 153T452 68T367 10T256 -12Z"  />
<glyph unicode="6" horiz-adv-x="545" d="M264 -12Q152 -12 90 52T28 235Q28 310 50 388T115 531T222 636T372 677Q438 677 488 654T572 592L471 480Q454 506 426 520T363 534Q336 534 313 523T272 492T239 447T215 395Q211 387 210 381T206 367Q231 398 270 416T351 435Q388 435 419 423T474 389T511 336T525 264Q525 210 506 161T451 73T369 11T264 -12ZM265 131Q286 131 303 141T332 166T350 201T357 238Q357 268 334 287T273 306Q247 306 226 293T188 260Q186 252 186 241T185 218Q185 177 207 154T265 131Z"  />
<glyph unicode="7" horiz-adv-x="494" d="M37 0L351 526H80L112 667H570L546 555L218 0H37Z"  />
<glyph unicode="8" horiz-adv-x="545" d="M253 -12Q200 -12 155 -3T76 28T23 81T4 159Q4 189 14 219T46 276T99 324T174 358Q138 375 113 409T87 488Q87 534 108 569T165 629T244 665T333 677Q376 677 419 668T496 639T551 588T572 512Q572 479 561 450T528 396T478 355T412 331Q458 307 483 269T508 186Q508 141 488 105T434 42T353 2T253 -12ZM307 400Q347 406 374 425T402 480Q402 505 381 519T326 534Q291 534 268 514T245 462Q245 451 251 441T266 423T286 409T307 400ZM256 131Q274 131 290 137T319 153T340 179T348 211Q348 225 342 236T325 257T303 272T280 281Q259 278 240 271T206 253T182 226T173 191Q173 162 195 147T256 131Z"  />
<glyph unicode="9" horiz-adv-x="545" d="M320 678Q432 678 493 614T555 431Q555 356 533 278T468 135T361 30T211 -11Q145 -11 95 12T11 74L112 186Q129 160 157 146T220 132Q247 132 270 143T312 174T345 219T369 271Q376 288 377 299Q353 268 314 250T232 231Q196 231 164 243T109 277T73 330T59 402Q59 456 78 505T133 593T215 655T320 678ZM319 535Q298 535 281 525T252 500T234 465T227 428Q227 398 250 379T311 360Q337 360 357 373T395 406Q397 414 398 425T399 448Q399 489 377 512T319 535Z"  />
<glyph unicode=":" horiz-adv-x="257" d="M87 -12Q53 -12 30 12T6 70Q6 90 14 107T35 138T66 159T104 167Q138 167 161 143T185 85Q185 65 177 48T156 17T125 -4T87 -12ZM158 311Q124 311 101 335T77 393Q77 413 85 430T106 461T137 482T175 490Q209 490 232 466T256 408Q256 388 248 371T227 340T196 319T158 311Z"  />
<glyph unicode=";" horiz-adv-x="264" d="M189 78Q189 48 177 17T144 -42T95 -94T32 -134L-18 -82Q-5 -76 10 -68T40 -48T66 -25T85 2Q83 1 79 1T73 1Q46 1 26 19T5 73Q5 92 13 109T36 139T67 159T104 167Q137 167 163 145T189 78ZM158 311Q124 311 101 335T77 393Q77 413 85 430T106 461T137 482T175 490Q209 490 232 466T256 408Q256 388 248 371T227 340T196 319T158 311Z"  />
<glyph unicode="&lt;" horiz-adv-x="446" d="M37 283L60 387L484 549L460 441L148 330L411 220L389 121L37 283Z"  />
<glyph unicode="=" horiz-adv-x="446" d="M59 384L79 471H467L448 384H59ZM18 197L38 284H426L407 197H18Z"  />
<glyph unicode="&gt;" horiz-adv-x="446" d="M1 121L25 229L338 338L74 450L96 549L448 387L425 283L1 121Z"  />
<glyph unicode="?" horiz-adv-x="394" d="M131 211Q126 224 123 241T120 276Q120 312 131 338T160 383T197 417T235 445T263 471T275 501Q275 518 263 528T224 539Q204 539 183 532T144 507L89 614Q130 648 174 662T263 677Q300 677 333 668T391 641T430 598T445 541Q445 501 431 473T396 422T350 383T304 350T269 316T255 275Q255 270 256 262T262 248L131 211ZM153 -12Q118 -12 95 12T71 70Q71 90 79 107T100 138T131 159T169 167Q203 167 226 143T250 85Q250 65 242 48T221 17T190 -4T153 -12Z"  />
<glyph unicode="@" horiz-adv-x="721" d="M334 -70Q270 -70 219 -48T131 14T75 108T55 229Q55 310 85 384T168 514T289 604T435 638Q496 638 546 618T631 561T686 475T706 367Q706 304 689 252T645 163T584 106T513 85Q472 85 448 104T417 153L415 161Q392 127 360 106T287 85Q232 85 197 123T161 236Q161 286 177 333T222 417T288 476T369 498Q407 498 431 481T468 436L478 484H606L556 249Q555 245 554 237T553 223Q553 181 584 181Q596 181 609 193T634 228T653 286T661 366Q661 420 645 462T599 535T527 581T432 597Q363 597 303 567T196 485T124 368T97 232Q97 177 113 130T160 47T236 -9T339 -30Q387 -30 427 -16T507 24L529 -7Q484 -37 436 -53T334 -70ZM348 186Q377 186 395 203T427 240L450 355Q445 369 433 383T397 397Q373 397 354 384T321 349T300 303T292 253Q292 223 306 205T348 186Z"  />
<glyph unicode="A" horiz-adv-x="579" d="M363 0L360 102H168L120 0H-60L285 667H480L532 0H363ZM351 499L231 243H360L351 499Z"  />
<glyph unicode="B" horiz-adv-x="581" d="M-1 0L146 667H416Q461 667 494 654T550 620T584 570T596 511Q596 478 585 448T554 393T507 352T448 332Q493 320 515 283T538 203Q538 168 526 132T489 67T423 19T325 0H-1ZM354 409Q391 409 407 430T423 478Q423 500 408 513T369 526H277L251 409H354ZM299 141Q335 141 355 163T376 218Q376 241 362 254T321 268H220L192 141H299Z"  />
<glyph unicode="C" horiz-adv-x="573" d="M298 -12Q238 -12 189 6T105 59T51 143T31 253Q31 334 55 410T123 546T232 642T378 678Q437 678 479 660T551 613T598 546T622 470L470 430Q462 476 437 505T370 535Q332 535 301 510T246 445T210 355T197 256Q197 199 226 165T306 131Q338 131 368 151T419 209L547 141Q500 62 435 25T298 -12Z"  />
<glyph unicode="D" horiz-adv-x="617" d="M-1 0L146 667H376Q422 667 465 650T543 599T597 517T618 409Q618 364 610 316T583 223T534 137T462 66T362 18T233 0H-1ZM192 141H262Q309 141 344 165T404 226T440 310T452 402Q452 459 422 492T346 526H277L192 141Z"  />
<glyph unicode="E" horiz-adv-x="492" d="M-1 0L146 667H549L518 526H277L251 409H486L454 268H220L192 141H433L402 0H-1Z"  />
<glyph unicode="F" horiz-adv-x="485" d="M-1 0L146 667H549L518 526H277L251 409H486L454 268H220L161 0H-1Z"  />
<glyph unicode="G" horiz-adv-x="602" d="M283 -12Q227 -12 181 7T102 60T50 144T31 253Q31 336 55 412T126 548T240 642T393 678Q442 678 480 663T545 622T589 563T613 495L471 447Q463 483 438 509T374 535Q336 535 304 511T248 448T211 359T197 256Q197 199 225 165T305 131Q327 131 346 140T381 164T408 198T428 237H298L330 378H620Q587 186 505 87T283 -12Z"  />
<glyph unicode="H" horiz-adv-x="628" d="M359 0L419 272H221L161 0H-1L146 667H308L252 414H450L506 667H667L520 0H359Z"  />
<glyph unicode="I" horiz-adv-x="268" d="M-1 0L146 667H308L161 0H-1Z"  />
<glyph unicode="J" horiz-adv-x="429" d="M131 -12Q84 -12 39 1T-35 43L39 169Q52 152 73 142T117 131Q153 131 176 151T207 210L308 667H469L367 205Q342 92 286 40T131 -12Z"  />
<glyph unicode="K" horiz-adv-x="578" d="M349 0L261 248L199 173L161 0H-1L146 667H308L250 402L466 667H662L384 355L528 0H349Z"  />
<glyph unicode="L" horiz-adv-x="454" d="M-3 0L144 667H306L190 141H407L376 0H-3Z"  />
<glyph unicode="M" horiz-adv-x="763" d="M496 0L584 403L358 0H297L250 403L161 0H-1L146 667H355L395 325L587 667H803L656 0H496Z"  />
<glyph unicode="N" horiz-adv-x="627" d="M366 0L240 360L161 0H-1L146 667H310L429 324L505 667H667L520 0H366Z"  />
<glyph unicode="O" horiz-adv-x="637" d="M298 -12Q237 -12 188 7T104 62T50 145T31 253Q31 331 54 407T122 544T230 641T378 678Q439 678 488 659T572 604T626 520T645 413Q645 335 622 259T554 122T445 25T298 -12ZM306 131Q344 131 375 156T430 221T465 310T478 409Q478 466 449 500T369 535Q331 535 300 510T245 444T210 355T197 256Q197 199 226 165T306 131Z"  />
<glyph unicode="P" horiz-adv-x="558" d="M-1 0L146 667H404Q444 667 478 653T536 613T574 555T588 482Q588 439 573 394T526 313T441 253T316 229H211L161 0H-1ZM327 370Q348 370 365 377T394 398T413 428T420 465Q420 493 403 509T359 526H277L242 370H327Z"  />
<glyph unicode="Q" horiz-adv-x="638" d="M298 -12Q237 -12 188 7T104 62T50 145T31 253Q31 331 54 407T122 544T230 641T378 678Q439 678 488 659T572 604T626 520T645 413Q645 358 634 304T600 200T545 110T470 40L485 2L362 -40L349 -8Q337 -10 325 -11T298 -12ZM384 262L411 192Q443 234 460 292T478 409Q478 466 449 500T369 535Q331 535 300 510T245 444T210 355T197 256Q197 202 223 169T295 131L261 221L384 262Z"  />
<glyph unicode="R" horiz-adv-x="575" d="M318 0L278 229H211L161 0H-1L146 667H393Q433 667 468 653T530 615T572 556T588 479Q588 437 575 399T541 331T493 280T435 249L491 0H318ZM328 370Q370 370 395 397T420 463Q420 493 402 509T358 526H277L242 370H328Z"  />
<glyph unicode="S" horiz-adv-x="515" d="M238 -12Q156 -12 88 16T-16 92L78 212Q104 175 149 153T244 131Q279 131 297 149T316 191Q316 210 298 224T254 253T196 284T138 323T93 376T75 450Q75 495 92 536T142 608T220 659T323 678Q388 678 448 655T548 588L456 470Q428 502 388 518T310 535Q280 535 263 519T246 481Q246 463 264 449T308 420T366 389T423 350T468 297T486 224Q486 176 469 134T419 59T341 7T238 -12Z"  />
<glyph unicode="T" horiz-adv-x="490" d="M110 0L226 526H82L113 667H563L532 526H388L272 0H110Z"  />
<glyph unicode="U" horiz-adv-x="631" d="M295 -12Q237 -12 192 3T114 46T65 112T48 199Q48 207 49 220T52 242L146 667H309L214 236Q213 231 212 224T211 209Q212 176 235 153T301 129Q349 129 375 157T413 236L508 667H671L576 239Q550 120 481 54T295 -12Z"  />
<glyph unicode="V" horiz-adv-x="579" d="M138 0L87 667H255L271 190L498 667H679L333 0H138Z"  />
<glyph unicode="W" horiz-adv-x="797" d="M420 0L433 401L269 0H103L94 667H263L246 245L426 667H550L545 245L713 667H889L586 0H420Z"  />
<glyph unicode="X" horiz-adv-x="581" d="M357 0L286 208L133 0H-60L216 351L98 667H275L336 472L474 667H668L407 333L533 0H357Z"  />
<glyph unicode="Y" horiz-adv-x="561" d="M146 0L206 271L85 667H255L312 419L478 667H662L367 271L308 0H146Z"  />
<glyph unicode="Z" horiz-adv-x="498" d="M-21 0L8 132L313 526H95L126 667H551L522 538L215 141H442L411 0H-21Z"  />
<glyph unicode="[" horiz-adv-x="256" d="M-54 -190L138 678H335L314 584H220L69 -96H163L142 -190H-54Z"  />
<glyph unicode="\" horiz-adv-x="293" d="M93 687H194L234 -20H133L93 687Z"  />
<glyph unicode="]" horiz-adv-x="256" d="M-78 -190L-58 -96H36L187 584H93L114 678H310L117 -190H-78Z"  />
<glyph unicode="^" horiz-adv-x="393" d="M295 333L270 561L145 333H38L238 667H343L393 333H295Z"  />
<glyph unicode="_" horiz-adv-x="422" d="M-86 -134L-65 -40H362L340 -134H-86Z"  />
<glyph unicode="`" horiz-adv-x="229" d="M204 556L101 700H226L298 556H204Z"  />
<glyph unicode="a" horiz-adv-x="495" d="M259 0L270 47Q248 21 216 5T144 -12Q117 -12 92 -4T48 22T18 63T7 121Q7 161 20 195T55 253T108 290T174 304Q216 304 252 290T313 244L323 291Q325 296 325 302T326 315Q326 343 301 359T237 376Q176 376 121 337L90 441Q128 470 176 482T272 495Q312 495 349 487T414 460T459 415T476 349Q476 341 474 327T470 300L404 0H259ZM214 84Q261 84 285 119L297 169Q287 187 268 197T222 208Q189 208 171 186T153 134Q153 109 169 97T214 84Z"  />
<glyph unicode="b" horiz-adv-x="520" d="M277 -12Q235 -12 202 5T151 58L139 0H-5L141 667H286L233 427Q261 463 290 479T355 495Q424 495 463 450T503 314Q503 263 489 206T447 100T376 20T277 -12ZM246 116Q271 116 291 133T325 176T346 232T354 288Q354 325 335 346T284 367Q262 367 243 355T210 323L174 160Q183 140 202 128T246 116Z"  />
<glyph unicode="c" horiz-adv-x="432" d="M230 -12Q132 -12 75 43T17 194Q17 252 36 306T91 403T174 470T281 495Q341 495 384 474T451 422L365 326Q352 346 332 356T288 367Q261 367 238 354T199 318T174 266T165 207Q165 162 191 139T255 116Q278 116 297 125T331 150L379 45Q356 22 318 5T230 -12Z"  />
<glyph unicode="d" horiz-adv-x="520" d="M242 495Q284 495 317 478T367 425L421 667H565L417 0H273L286 56Q258 20 228 4T163 -12Q94 -12 55 34T15 169Q15 220 29 277T71 383T142 463T242 495ZM272 367Q246 367 227 350T193 307T172 251T165 195Q165 158 184 137T235 116Q257 116 276 128T309 160L345 323Q335 343 316 355T272 367Z"  />
<glyph unicode="e" horiz-adv-x="488" d="M236 -12Q135 -12 76 42T17 194Q17 248 35 302T88 398T170 468T278 495Q369 495 420 443T471 299Q471 270 466 240T456 194H156Q155 190 155 186T155 178Q155 168 160 156T178 132T209 113T257 105Q284 105 310 114T356 138L400 42Q368 16 324 2T236 -12ZM340 293Q342 298 342 302T342 312Q342 340 323 359T267 378Q247 378 231 371T203 351T184 323T174 293H339H340Z"  />
<glyph unicode="f" horiz-adv-x="304" d="M19 0L97 358H36L64 483H125L130 504Q166 677 306 677Q334 677 360 671T406 654L359 547Q353 552 344 554T326 556Q286 556 274 504L269 483H348L319 358H242L163 0H19Z"  />
<glyph unicode="g" horiz-adv-x="519" d="M173 -196Q108 -196 56 -178T-33 -121L43 -20Q63 -47 97 -61T169 -75Q207 -75 235 -54T277 25L290 78Q239 9 166 9Q101 9 59 51T17 182Q17 232 30 287T72 389T142 465T240 495Q257 495 275 491T311 477T343 455T366 425L379 483H524L421 25Q406 -41 380 -84T321 -151T250 -186T173 -196ZM238 137Q259 137 278 150T312 182L343 320Q332 342 313 354T267 367Q243 367 224 352T193 315T173 265T166 213Q166 176 185 157T238 137Z"  />
<glyph unicode="h" horiz-adv-x="519" d="M272 0L339 304Q341 308 341 315T342 326Q342 348 328 357T291 367Q266 367 245 351T209 316L139 0H-5L142 667H286L232 424Q256 450 291 472T374 495Q433 495 466 466T499 389Q499 382 498 373T495 356L417 0H272Z"  />
<glyph unicode="i" horiz-adv-x="241" d="M192 529Q159 529 138 550T116 601Q116 624 125 642T148 672T178 690T211 697Q244 697 265 676T287 625Q287 602 278 584T255 554T225 536T192 529ZM-6 0L101 483H246L139 0H-6Z"  />
<glyph unicode="j" horiz-adv-x="241" d="M-51 -196Q-128 -196 -161 -164L-106 -51Q-98 -60 -88 -64T-65 -68Q-21 -68 -9 -12L101 483H246L136 -12Q127 -54 113 -88T76 -146T23 -183T-51 -196ZM192 529Q159 529 138 550T116 601Q116 624 125 642T148 672T178 690T211 697Q244 697 265 676T287 625Q287 602 278 584T255 554T225 536T192 529Z"  />
<glyph unicode="k" horiz-adv-x="488" d="M271 0L223 178L163 112L139 0H-6L141 667H286L204 295L364 483H536L341 267L436 0H271Z"  />
<glyph unicode="l" horiz-adv-x="279" d="M162 -12Q95 -12 57 13T19 90Q19 99 20 110T23 133L141 667H286L175 167Q174 162 174 157T173 146Q173 132 182 124T209 116Q217 116 224 118T235 124V5Q224 -2 206 -7T162 -12Z"  />
<glyph unicode="m" horiz-adv-x="773" d="M526 0L593 305Q594 308 595 314T596 326Q596 346 584 356T551 367Q528 367 508 351T474 316L404 0H260L327 305Q329 310 330 316T331 327Q329 367 285 367Q262 367 242 350T209 316L139 0H-6L101 483H246L232 424Q242 436 256 449T287 472T325 488T367 495Q396 495 418 486T455 464T477 437T485 411V408Q510 441 547 468T633 495Q658 495 679 488T717 468T743 435T753 390Q753 381 752 371T749 356L670 0H526Z"  />
<glyph unicode="n" horiz-adv-x="519" d="M272 0L339 304Q341 309 341 315T342 326Q342 348 328 357T291 367Q266 367 245 351T209 316L139 0H-6L101 483H246L232 424Q256 450 291 472T374 495Q433 495 466 466T499 389Q499 384 498 373T495 356L417 0H272Z"  />
<glyph unicode="o" horiz-adv-x="508" d="M229 -12Q177 -12 138 3T71 46T31 111T17 194Q17 248 35 302T87 399T169 468T278 495Q330 495 369 480T435 437T475 372T489 289Q489 235 471 181T419 84T337 15T229 -12ZM236 116Q261 116 281 133T314 177T335 233T342 287Q342 328 324 347T271 367Q246 367 226 350T193 306T172 250T164 196Q164 155 183 136T236 116Z"  />
<glyph unicode="p" horiz-adv-x="519" d="M277 -12Q235 -12 202 5T151 58L98 -184H-46L101 483H246L233 427Q261 463 290 479T355 495Q424 495 463 450T503 314Q503 263 489 206T447 100T376 20T277 -12ZM246 116Q271 116 291 133T325 176T346 232T354 288Q354 325 335 346T284 367Q262 367 243 355T210 323L174 160Q183 140 202 128T246 116Z"  />
<glyph unicode="q" horiz-adv-x="519" d="M242 495Q284 495 317 478T367 425L380 483H524L376 -184H232L286 56Q258 20 228 4T163 -12Q94 -12 55 34T15 169Q15 220 29 277T71 383T142 463T242 495ZM272 367Q246 367 227 350T193 307T172 251T165 195Q165 158 184 137T235 116Q257 116 276 128T309 160L345 323Q335 343 316 355T272 367Z"  />
<glyph unicode="r" horiz-adv-x="335" d="M-6 0L101 483H246L233 424Q257 456 293 476T378 496L346 354Q340 356 330 358T307 360Q278 360 252 346T207 308L139 0H-6Z"  />
<glyph unicode="s" horiz-adv-x="426" d="M186 -12Q122 -12 67 11T-20 69L57 166Q66 155 80 144T113 123T151 107T193 101Q218 101 232 112T247 139Q247 152 232 161T195 180T147 200T99 227T62 267T47 325Q47 358 59 388T96 443T157 481T240 495Q294 495 344 476T429 421L356 327Q349 336 337 345T309 363T275 377T238 382Q214 382 201 373T188 348Q188 336 203 328T240 310T289 289T337 262T375 221T390 163Q390 128 376 96T336 40T272 2T186 -12Z"  />
<glyph unicode="t" horiz-adv-x="313" d="M186 -12Q118 -12 80 13T42 92Q42 100 43 110T46 133L97 358H35L63 483H125L154 615H298L269 483H347L318 358H241L199 167Q197 162 197 158T197 149Q197 116 232 116Q239 116 246 118T258 124V5Q246 -3 228 -7T186 -12Z"  />
<glyph unicode="u" horiz-adv-x="519" d="M245 483L178 179Q177 174 176 169T175 158Q175 136 189 126T226 116Q251 116 272 132T309 167L379 483H523L416 0H272L285 59Q261 33 226 11T144 -12Q85 -12 52 17T18 94Q18 99 19 110T22 127L101 483H245Z"  />
<glyph unicode="v" horiz-adv-x="470" d="M104 0L47 483H196L214 174L372 483H529L258 0H104Z"  />
<glyph unicode="w" horiz-adv-x="718" d="M383 0L370 298L227 0H74L51 483H196L197 185L340 483H471L485 185L619 483H773L536 0H383Z"  />
<glyph unicode="x" horiz-adv-x="457" d="M254 0L211 145L103 0H-57L137 245L57 483H208L246 347L345 483H505L318 245L406 0H254Z"  />
<glyph unicode="y" horiz-adv-x="519" d="M173 -196Q105 -196 52 -177T-34 -121L43 -20Q63 -47 98 -61T169 -75Q217 -75 241 -49T276 25L289 82Q265 56 230 34T149 12Q93 12 58 39T23 118Q23 124 24 132T27 150L101 483H246L183 202Q181 195 181 190T181 181Q181 158 195 149T232 139Q257 139 278 155T314 191L379 483H523L421 25Q398 -81 336 -138T173 -196Z"  />
<glyph unicode="z" horiz-adv-x="420" d="M-24 0L0 107L221 358H55L83 483H438L416 380L191 125H363L335 0H-24Z"  />
<glyph unicode="{" horiz-adv-x="265" d="M120 -190Q94 -190 70 -182T28 -157T-1 -120T-12 -71Q-12 -56 -9 -42L31 139Q32 144 32 148T33 157Q33 178 23 191T-6 205L12 283Q41 283 56 301T78 349L118 530Q135 605 182 641T300 678H344L323 584H279Q233 584 221 530L175 323Q167 290 153 267T110 233Q125 225 132 211T139 177Q139 169 138 161T135 143L95 -37Q94 -42 93 -46T92 -56Q92 -74 103 -85T132 -96H172L151 -190H120Z"  />
<glyph unicode="|" horiz-adv-x="201" d="M73 -20V687H167V-20H73Z"  />
<glyph unicode="}" horiz-adv-x="265" d="M144 678Q169 678 193 670T235 645T265 608T276 559Q276 552 275 545T272 530L232 349Q231 344 231 340T230 331Q230 310 240 297T270 283L252 205Q223 205 208 187T186 139L145 -42Q128 -117 82 -153T-36 -190H-80L-59 -96H-16Q31 -96 43 -42L88 165Q96 198 110 221T154 255Q139 263 132 277T125 311Q125 319 126 327T129 345L169 525Q170 530 170 534T171 544Q171 562 160 573T132 584H92L113 678H144Z"  />
<glyph unicode="~" horiz-adv-x="472" d="M537 658Q529 617 516 573T482 493T429 433T355 409Q321 409 303 421T276 453T265 494T262 536T256 567T240 580Q218 580 197 535T159 408L64 417Q72 459 85 503T120 583T173 643T246 667Q280 667 298 654T325 622T336 581T340 539T345 507T361 494Q383 494 405 540T444 667L537 658Z"  />
<glyph unicode="&#xA0;" horiz-adv-x="206" />
<glyph unicode="&#xA1;" horiz-adv-x="264" d="M199 256L125 -184H-49L71 256H199ZM177 495Q211 495 234 471T258 413Q258 393 250 376T229 345T198 324T160 316Q126 316 103 340T79 398Q79 418 87 435T108 466T139 487T177 495Z"  />
<glyph unicode="&#xA2;" horiz-adv-x="432" d="M141 2Q82 24 50 73T17 194Q17 248 34 299T81 391T155 459T250 493L267 565H370L352 485Q385 476 410 460T451 422L365 326Q352 346 332 356T288 367Q261 367 238 354T199 318T174 266T165 207Q165 162 191 139T255 116Q278 116 297 125T331 150L379 45Q357 23 322 7T241 -12L222 -100H119L141 2Z"  />
<glyph unicode="&#xA3;" horiz-adv-x="508" d="M53 365H105Q99 383 94 403T89 449Q89 499 110 541T167 613T248 660T342 677Q382 677 417 668T481 641T528 594T553 529L412 480Q408 512 391 529T347 546Q329 546 314 537T287 511T270 473T263 427Q263 409 267 394T276 365H381L361 274H279Q270 232 248 199T198 149Q221 157 238 157Q257 157 271 153T299 144T326 135T357 131Q382 131 399 139T429 162L451 32Q433 13 405 1T335 -12Q303 -12 277 -6T227 9T181 23T137 30Q114 30 91 22T38 -7L13 101Q64 127 97 171T130 265V274H33L53 365Z"  />
<glyph unicode="&#xA4;" horiz-adv-x="506" d="M253 222Q310 222 341 262T372 365Q372 395 364 421T341 467T304 498T253 509Q224 509 202 498T165 468T141 422T133 365Q133 334 141 308T164 263T202 233T253 222ZM19 168L88 239Q50 294 50 365Q50 436 88 489L19 560L64 603L131 534Q155 552 185 563T253 574Q289 574 320 563T375 534L442 603L487 560L418 489Q455 435 455 365Q455 330 445 298T417 240L487 168L442 125L374 194Q325 157 253 157Q181 157 132 194L64 125L19 168Z"  />
<glyph unicode="&#xA5;" horiz-adv-x="561" d="M146 0L171 112H-4L15 199H190L206 271H31L50 358H179L85 667H255L312 419L478 667H662L432 358H561L541 271H367L351 199H525L506 112H332L308 0H146Z"  />
<glyph unicode="&#xA6;" horiz-adv-x="201" d="M73 -20V296H167V-20H73ZM73 371V687H167V371H73Z"  />
<glyph unicode="&#xA7;" horiz-adv-x="431" d="M427 340Q427 290 399 250T319 189Q347 172 359 146T372 93Q372 56 357 25T316 -30T253 -67T173 -81Q105 -81 48 -62T-43 -5L35 84Q56 56 92 39T168 22Q197 22 213 37T230 72Q230 90 216 101T179 123T132 145T85 171T49 210T34 269Q34 319 63 356T149 412Q122 428 106 455T89 514Q89 550 103 579T143 631T204 665T279 677Q351 677 398 658T477 606L403 527Q383 551 352 564T288 577Q259 577 244 563T229 530Q229 514 243 503T280 481T328 460T376 433T412 395T427 340ZM286 306Q286 329 272 342T241 364Q204 357 189 339T173 297Q173 258 231 236Q260 246 273 265T286 306Z"  />
<glyph unicode="&#xA8;" horiz-adv-x="295" d="M402 622Q402 605 395 590T377 564T350 546T318 539Q289 539 271 557T252 605Q252 621 259 636T277 663T304 681T336 688Q365 688 383 669T402 622ZM207 622Q207 605 200 590T181 564T154 546T122 539Q94 539 75 557T56 605Q56 621 63 636T82 663T109 681T140 688Q169 688 188 669T207 622Z"  />
<glyph unicode="&#xA9;" horiz-adv-x="778" d="M754 334Q754 263 727 200T653 90T543 16T408 -11Q337 -11 274 16T165 90T91 200T64 334Q64 406 91 468T164 578T274 652T408 679Q480 679 543 652T653 578T727 469T754 334ZM716 334Q716 397 692 453T625 551T527 617T408 641Q345 641 290 617T192 551T126 453T102 334Q102 271 126 215T192 118T289 52T408 27Q471 27 527 51T625 117T691 215T716 334ZM533 178Q506 155 470 140T393 124Q349 124 314 138T254 176T216 234T202 307Q202 358 221 401T273 477T347 527T435 545Q486 545 528 525T595 464L555 435Q537 468 506 485T432 502Q399 502 367 488T309 448T267 387T251 309Q251 280 260 255T288 209T333 178T394 166Q426 166 456 180T507 214L533 178Z"  />
<glyph unicode="&#xAA;" horiz-adv-x="371" d="M250 567Q233 567 220 557T196 530T181 493T175 452Q175 426 188 413T221 400Q234 400 246 407T269 428L294 542Q287 554 275 560T250 567ZM419 640L350 326H246L254 362Q235 338 215 328T172 318Q130 318 100 347T69 440Q69 479 80 516T112 582T160 630T221 648Q249 648 271 638T308 604L316 640H419Z"  />
<glyph unicode="&#xAB;" horiz-adv-x="492" d="M114 63L29 243L194 420H317L148 239L231 63H114ZM301 63L216 243L381 420H504L335 239L418 63H301Z"  />
<glyph unicode="&#xAC;" horiz-adv-x="453" d="M407 197H317L358 384H59L79 471H467L407 197Z"  />
<glyph unicode="&#xAD;" horiz-adv-x="273" d="M16 181L43 303H255L229 181H16Z"  />
<glyph unicode="&#xAE;" horiz-adv-x="494" d="M508 465Q508 421 492 383T446 315T378 270T295 253Q251 253 213 269T146 315T101 382T84 465Q84 509 100 548T146 615T213 660T296 677Q340 677 379 661T446 616T491 548T508 465ZM475 465Q475 502 461 535T423 592T365 630T295 644Q258 644 226 630T169 592T131 535T117 465Q117 428 131 396T169 339T225 300T295 286Q332 286 365 300T422 338T461 395T475 465ZM328 343L286 439H244L223 343H187L240 586H334Q366 586 386 568T406 522Q406 504 399 489T381 463T355 446T326 440L370 343H328ZM368 519Q368 556 326 556H270L250 470H314Q338 470 353 484T368 519Z"  />
<glyph unicode="&#xAF;" horiz-adv-x="314" d="M77 591L94 671H408L390 591H77Z"  />
<glyph unicode="&#xB0;" horiz-adv-x="317" d="M363 537Q363 508 352 483T322 439T278 409T223 398Q194 398 169 409T125 438T95 482T84 537Q84 566 95 591T124 636T168 666T223 677Q252 677 277 666T322 636T352 592T363 537ZM287 537Q287 563 268 582T223 601Q197 601 179 582T161 537Q161 511 178 493T222 475Q248 475 267 493T287 537Z"  />
<glyph unicode="&#xB1;" horiz-adv-x="446" d="M285 310L248 140H151L189 310H43L63 397H209L245 560H341L305 397H451L432 310H285ZM-23 7L-4 94H384L365 7H-23Z"  />
<glyph unicode="&#xB2;" horiz-adv-x="357" d="M74 421L93 504Q165 550 210 581T280 634T315 671T324 702Q324 721 310 731T272 741Q245 741 220 730T176 699L130 770Q159 796 198 811T279 827Q312 827 340 820T389 797T422 761T434 713Q434 686 422 662T385 614T324 563T239 507H392L373 421H74Z"  />
<glyph unicode="&#xB3;" horiz-adv-x="357" d="M399 536Q399 513 389 491T358 452T310 425T246 414Q190 414 145 433T79 486L150 549Q166 524 190 512T241 500Q268 500 281 514T294 547Q294 565 277 573T230 582Q222 582 213 582T198 581L216 665Q219 665 225 665T239 664T254 664T266 664Q295 664 310 675T325 706Q325 724 308 732T266 741Q243 741 221 733T178 707L135 771Q163 798 200 812T276 827Q347 827 390 800T433 723Q433 705 427 688T407 656T375 632T330 620Q362 611 380 589T399 536Z"  />
<glyph unicode="&#xB4;" horiz-adv-x="229" d="M163 556H67L204 700H330L163 556Z"  />
<glyph unicode="&#xB5;" horiz-adv-x="519" d="M-46 -184L101 483H246L178 177Q170 144 182 130T221 115Q247 115 270 131T308 165L379 483H523L416 0H272L284 57Q261 32 221 12T136 -11L98 -184H-46Z"  />
<glyph unicode="&#xB6;" horiz-adv-x="449" d="M265 -100L421 599H346L190 -100H122L216 323Q188 323 163 334T120 367T90 416T79 479Q79 514 93 548T134 608T195 651T273 667H503L333 -100H265Z"  />
<glyph unicode="&#xB7;" horiz-adv-x="264" d="M124 155Q89 155 66 179T42 237Q42 257 50 274T71 305T102 327T140 335Q174 335 197 311T221 252Q221 232 213 215T192 184T161 163T124 155Z"  />
<glyph unicode="&#xB8;" horiz-adv-x="210" d="M22 -197Q-14 -197 -42 -185T-89 -156L-52 -104Q-38 -120 -19 -129T22 -139Q41 -139 52 -130T63 -106Q63 -98 57 -92T40 -86Q25 -86 15 -99L-29 -70L19 11H88L49 -50Q56 -44 61 -42T75 -40Q99 -40 115 -56T132 -102Q132 -145 101 -171T22 -197Z"  />
<glyph unicode="&#xB9;" horiz-adv-x="283" d="M166 421L223 680L150 621L102 686L269 821H362L274 421H166Z"  />
<glyph unicode="&#xBA;" horiz-adv-x="363" d="M218 318Q148 318 110 356T71 455Q71 493 84 528T122 589T179 632T251 648Q321 648 359 610T398 511Q398 473 385 438T347 377T290 334T218 318ZM222 400Q240 400 253 412T275 443T288 481T292 515Q292 564 247 564Q229 564 216 552T193 521T180 484T176 450Q176 400 222 400Z"  />
<glyph unicode="&#xBB;" horiz-adv-x="492" d="M192 420L277 240L112 63H-11L158 245L75 420H192ZM379 420L464 240L299 63H176L344 245L262 420H379Z"  />
<glyph unicode="&#xBC;" horiz-adv-x="776" d="M179 0H110L611 667H681L179 0ZM682 81L665 0H558L575 81H401L418 158L613 400H753L701 165H742L724 81H682ZM623 294L518 165H594L623 294ZM132 267L189 526L116 467L68 532L235 667H328L240 267H132Z"  />
<glyph unicode="&#xBD;" horiz-adv-x="811" d="M179 0H110L611 667H681L179 0ZM435 0L454 83Q526 129 571 160T641 213T676 250T685 281Q685 300 671 310T633 320Q606 320 581 309T537 278L491 349Q520 375 559 390T640 406Q673 406 701 399T750 376T783 340T795 292Q795 265 783 241T746 193T685 142T600 86H753L734 0H435ZM132 267L189 526L116 467L68 532L235 667H328L240 267H132Z"  />
<glyph unicode="&#xBE;" horiz-adv-x="835" d="M238 0H169L670 667H740L238 0ZM741 81L724 0H617L634 81H460L477 158L672 400H812L760 165H801L783 81H741ZM682 294L577 165H653L682 294ZM365 382Q365 359 355 337T324 298T276 271T212 260Q156 260 111 279T45 332L116 395Q132 370 156 358T207 346Q234 346 247 360T260 393Q260 411 243 419T196 428Q188 428 179 428T164 427L182 511Q185 511 191 511T205 510T220 510T232 510Q261 510 276 521T291 552Q291 570 274 578T232 587Q209 587 187 579T144 553L101 617Q129 644 166 658T242 673Q313 673 356 646T399 569Q399 551 393 534T373 502T341 478T296 466Q328 457 346 435T365 382Z"  />
<glyph unicode="&#xBF;" horiz-adv-x="349" d="M262 271Q267 258 270 241T273 207Q273 171 262 145T233 100T196 66T158 38T130 12T118 -18Q118 -35 130 -46T169 -57Q212 -57 249 -25L304 -132Q262 -166 218 -180T130 -195Q93 -195 60 -186T2 -159T-37 -116T-52 -58Q-52 -19 -38 9T-3 60T43 99T89 132T124 167T138 208Q138 213 137 221T131 235L262 271ZM240 494Q275 494 298 470T321 412Q321 392 313 375T292 344T261 323T224 315Q189 315 166 339T142 397Q142 417 150 434T171 465T202 486T240 494Z"  />
<glyph unicode="&#xC0;" horiz-adv-x="579" d="M383 728L280 872H405L477 728H383ZM363 0L360 102H168L120 0H-60L285 667H480L532 0H363ZM351 499L231 243H360L351 499Z"  />
<glyph unicode="&#xC1;" horiz-adv-x="579" d="M412 728H316L453 872H579L412 728ZM363 0L360 102H168L120 0H-60L285 667H480L532 0H363ZM351 499L231 243H360L351 499Z"  />
<glyph unicode="&#xC2;" horiz-adv-x="579" d="M458 728L416 812L341 728H257L364 872H492L538 728H458ZM363 0L360 102H168L120 0H-60L285 667H480L532 0H363ZM351 499L231 243H360L351 499Z"  />
<glyph unicode="&#xC3;" horiz-adv-x="579" d="M458 726Q434 726 421 735T398 756T380 776T356 786Q330 786 320 732H245Q258 795 285 830T363 866Q387 866 400 857T424 836T442 816T466 806Q490 806 503 860H577Q563 797 536 762T458 726ZM363 0L360 102H168L120 0H-60L285 667H480L532 0H363ZM351 499L231 243H360L351 499Z"  />
<glyph unicode="&#xC4;" horiz-adv-x="579" d="M583 796Q583 779 576 764T558 738T531 720T499 713Q470 713 452 731T433 779Q433 795 440 810T458 837T485 855T517 862Q546 862 564 843T583 796ZM388 796Q388 779 381 764T362 738T335 720T303 713Q275 713 256 731T237 779Q237 795 244 810T263 837T290 855T321 862Q350 862 369 843T388 796ZM363 0L360 102H168L120 0H-60L285 667H480L532 0H363ZM351 499L231 243H360L351 499Z"  />
<glyph unicode="&#xC5;" horiz-adv-x="579" d="M399 692Q359 692 334 717T309 782Q309 804 318 824T342 860T377 884T420 893Q460 893 485 868T510 802Q510 780 501 760T477 725T442 701T399 692ZM406 754Q423 754 435 766T448 796Q448 812 439 821T414 831Q397 831 385 819T372 789Q372 774 381 764T406 754ZM363 0L360 102H168L120 0H-60L285 667H480L532 0H363ZM351 499L231 243H360L351 499Z"  />
<glyph unicode="&#xC6;" horiz-adv-x="809" d="M322 0L345 102H183L117 0H-62L401 667H872L841 526H600L574 409H809L777 268H543L515 141H756L725 0H322ZM430 487L271 243H376L430 487Z"  />
<glyph unicode="&#xC7;" horiz-adv-x="573" d="M287 -12L263 -50Q270 -44 275 -42T289 -40Q313 -40 329 -56T346 -102Q346 -145 315 -171T236 -197Q200 -197 172 -185T125 -156L162 -104Q176 -120 195 -129T236 -139Q255 -139 266 -130T277 -106Q277 -98 271 -92T254 -86Q239 -86 229 -99L185 -70L224 -4Q135 16 83 83T31 253Q31 334 55 410T123 546T232 642T378 678Q437 678 479 660T551 613T598 546T622 470L470 430Q462 476 437 505T370 535Q332 535 301 510T246 445T210 355T197 256Q197 199 226 165T306 131Q338 131 368 151T419 209L547 141Q500 62 435 25T298 -12H287Z"  />
<glyph unicode="&#xC8;" horiz-adv-x="492" d="M349 728L246 872H371L443 728H349ZM-1 0L146 667H549L518 526H277L251 409H486L454 268H220L192 141H433L402 0H-1Z"  />
<glyph unicode="&#xC9;" horiz-adv-x="492" d="M379 728H283L420 872H546L379 728ZM-1 0L146 667H549L518 526H277L251 409H486L454 268H220L192 141H433L402 0H-1Z"  />
<glyph unicode="&#xCA;" horiz-adv-x="492" d="M422 728L380 812L305 728H221L328 872H456L502 728H422ZM-1 0L146 667H549L518 526H277L251 409H486L454 268H220L192 141H433L402 0H-1Z"  />
<glyph unicode="&#xCB;" horiz-adv-x="492" d="M550 796Q550 779 543 764T525 738T498 720T466 713Q437 713 419 731T400 779Q400 795 407 810T425 837T452 855T484 862Q513 862 531 843T550 796ZM355 796Q355 779 348 764T329 738T302 720T270 713Q242 713 223 731T204 779Q204 795 211 810T230 837T257 855T288 862Q317 862 336 843T355 796ZM-1 0L146 667H549L518 526H277L251 409H486L454 268H220L192 141H433L402 0H-1Z"  />
<glyph unicode="&#xCC;" horiz-adv-x="268" d="M226 728L123 872H248L320 728H226ZM-1 0L146 667H308L161 0H-1Z"  />
<glyph unicode="&#xCD;" horiz-adv-x="268" d="M258 728H162L299 872H425L258 728ZM-1 0L146 667H308L161 0H-1Z"  />
<glyph unicode="&#xCE;" horiz-adv-x="268" d="M301 728L259 812L184 728H100L207 872H335L381 728H301ZM-1 0L146 667H308L161 0H-1Z"  />
<glyph unicode="&#xCF;" horiz-adv-x="268" d="M428 796Q428 779 421 764T403 738T376 720T344 713Q315 713 297 731T278 779Q278 795 285 810T303 837T330 855T362 862Q391 862 409 843T428 796ZM233 796Q233 779 226 764T207 738T180 720T148 713Q120 713 101 731T82 779Q82 795 89 810T108 837T135 855T166 862Q195 862 214 843T233 796ZM-1 0L146 667H308L161 0H-1Z"  />
<glyph unicode="&#xD0;" horiz-adv-x="641" d="M23 0L82 269H16L44 398H111L170 667H400Q446 667 489 650T567 599T621 517T642 409Q642 364 634 316T607 223T558 137T486 66T386 18T257 0H23ZM244 269L216 141H286Q333 141 368 165T428 226T464 310T476 402Q476 459 446 492T370 526H301L273 398H374L345 269H244Z"  />
<glyph unicode="&#xD1;" horiz-adv-x="627" d="M482 726Q458 726 445 735T422 756T404 776T380 786Q354 786 344 732H269Q282 795 309 830T387 866Q411 866 424 857T448 836T466 816T490 806Q514 806 527 860H601Q587 797 560 762T482 726ZM366 0L240 360L161 0H-1L146 667H310L429 324L505 667H667L520 0H366Z"  />
<glyph unicode="&#xD2;" horiz-adv-x="637" d="M413 728L310 872H435L507 728H413ZM298 -12Q237 -12 188 7T104 62T50 145T31 253Q31 331 54 407T122 544T230 641T378 678Q439 678 488 659T572 604T626 520T645 413Q645 335 622 259T554 122T445 25T298 -12ZM306 131Q344 131 375 156T430 221T465 310T478 409Q478 466 449 500T369 535Q331 535 300 510T245 444T210 355T197 256Q197 199 226 165T306 131Z"  />
<glyph unicode="&#xD3;" horiz-adv-x="637" d="M441 728H345L482 872H608L441 728ZM298 -12Q237 -12 188 7T104 62T50 145T31 253Q31 331 54 407T122 544T230 641T378 678Q439 678 488 659T572 604T626 520T645 413Q645 335 622 259T554 122T445 25T298 -12ZM306 131Q344 131 375 156T430 221T465 310T478 409Q478 466 449 500T369 535Q331 535 300 510T245 444T210 355T197 256Q197 199 226 165T306 131Z"  />
<glyph unicode="&#xD4;" horiz-adv-x="637" d="M488 728L446 812L371 728H287L394 872H522L568 728H488ZM298 -12Q237 -12 188 7T104 62T50 145T31 253Q31 331 54 407T122 544T230 641T378 678Q439 678 488 659T572 604T626 520T645 413Q645 335 622 259T554 122T445 25T298 -12ZM306 131Q344 131 375 156T430 221T465 310T478 409Q478 466 449 500T369 535Q331 535 300 510T245 444T210 355T197 256Q197 199 226 165T306 131Z"  />
<glyph unicode="&#xD5;" horiz-adv-x="637" d="M488 726Q464 726 451 735T428 756T410 776T386 786Q360 786 350 732H275Q288 795 315 830T393 866Q417 866 430 857T454 836T472 816T496 806Q520 806 533 860H607Q593 797 566 762T488 726ZM298 -12Q237 -12 188 7T104 62T50 145T31 253Q31 331 54 407T122 544T230 641T378 678Q439 678 488 659T572 604T626 520T645 413Q645 335 622 259T554 122T445 25T298 -12ZM306 131Q344 131 375 156T430 221T465 310T478 409Q478 466 449 500T369 535Q331 535 300 510T245 444T210 355T197 256Q197 199 226 165T306 131Z"  />
<glyph unicode="&#xD6;" horiz-adv-x="637" d="M613 796Q613 779 606 764T588 738T561 720T529 713Q500 713 482 731T463 779Q463 795 470 810T488 837T515 855T547 862Q576 862 594 843T613 796ZM418 796Q418 779 411 764T392 738T365 720T333 713Q305 713 286 731T267 779Q267 795 274 810T293 837T320 855T351 862Q380 862 399 843T418 796ZM298 -12Q237 -12 188 7T104 62T50 145T31 253Q31 331 54 407T122 544T230 641T378 678Q439 678 488 659T572 604T626 520T645 413Q645 335 622 259T554 122T445 25T298 -12ZM306 131Q344 131 375 156T430 221T465 310T478 409Q478 466 449 500T369 535Q331 535 300 510T245 444T210 355T197 256Q197 199 226 165T306 131Z"  />
<glyph unicode="&#xD7;" horiz-adv-x="446" d="M235 272L89 152L35 219L182 340L93 454L162 511L250 396L397 516L451 449L305 328L393 214L324 157L235 272Z"  />
<glyph unicode="&#xD8;" horiz-adv-x="637" d="M298 -12Q247 -12 204 1T127 41L91 0H-10L75 97Q54 129 43 168T31 253Q31 331 54 407T122 544T230 641T378 678Q427 678 468 665T543 628L577 667H678L596 574Q619 542 632 501T645 413Q645 335 622 259T554 122T445 25T298 -12ZM306 131Q344 131 375 156T430 221T465 310T478 409Q478 423 475 437L231 160Q260 131 306 131ZM197 256Q197 251 197 246T198 236L438 509Q409 535 369 535Q331 535 300 510T245 444T210 355T197 256Z"  />
<glyph unicode="&#xD9;" horiz-adv-x="631" d="M410 728L307 872H432L504 728H410ZM295 -12Q237 -12 192 3T114 46T65 112T48 199Q48 207 49 220T52 242L146 667H309L214 236Q213 231 212 224T211 209Q212 176 235 153T301 129Q349 129 375 157T413 236L508 667H671L576 239Q550 120 481 54T295 -12Z"  />
<glyph unicode="&#xDA;" horiz-adv-x="631" d="M439 728H343L480 872H606L439 728ZM295 -12Q237 -12 192 3T114 46T65 112T48 199Q48 207 49 220T52 242L146 667H309L214 236Q213 231 212 224T211 209Q212 176 235 153T301 129Q349 129 375 157T413 236L508 667H671L576 239Q550 120 481 54T295 -12Z"  />
<glyph unicode="&#xDB;" horiz-adv-x="631" d="M487 728L445 812L370 728H286L393 872H521L567 728H487ZM295 -12Q237 -12 192 3T114 46T65 112T48 199Q48 207 49 220T52 242L146 667H309L214 236Q213 231 212 224T211 209Q212 176 235 153T301 129Q349 129 375 157T413 236L508 667H671L576 239Q550 120 481 54T295 -12Z"  />
<glyph unicode="&#xDC;" horiz-adv-x="631" d="M610 796Q610 779 603 764T585 738T558 720T526 713Q497 713 479 731T460 779Q460 795 467 810T485 837T512 855T544 862Q573 862 591 843T610 796ZM415 796Q415 779 408 764T389 738T362 720T330 713Q302 713 283 731T264 779Q264 795 271 810T290 837T317 855T348 862Q377 862 396 843T415 796ZM295 -12Q237 -12 192 3T114 46T65 112T48 199Q48 207 49 220T52 242L146 667H309L214 236Q213 231 212 224T211 209Q212 176 235 153T301 129Q349 129 375 157T413 236L508 667H671L576 239Q550 120 481 54T295 -12Z"  />
<glyph unicode="&#xDD;" horiz-adv-x="561" d="M404 728H308L445 872H571L404 728ZM146 0L206 271L85 667H255L312 419L478 667H662L367 271L308 0H146Z"  />
<glyph unicode="&#xDE;" horiz-adv-x="558" d="M-1 0L146 667H308L285 563H381Q421 563 455 549T513 510T551 451T565 378Q565 334 550 289T503 208T419 148T294 125H188L161 0H-1ZM304 266Q325 266 342 273T371 294T390 324T397 361Q397 390 380 406T336 422H254L220 266H304Z"  />
<glyph unicode="&#xDF;" horiz-adv-x="610" d="M580 163Q580 130 566 99T527 43T465 3T384 -12Q320 -12 273 7T189 68L263 161Q283 135 311 119T377 103Q399 103 414 114T429 142Q429 155 417 164T385 181T345 200T304 224T273 259T260 310Q260 343 270 366T297 407T332 436T367 458T393 479T404 505Q404 525 385 537T333 549Q298 549 276 530T244 468L141 0H-4L99 468Q109 511 128 549T178 615T249 660T343 677Q383 677 421 666T490 635T538 588T556 526Q556 494 545 471T517 431T481 402T444 379T416 358T405 334Q405 322 418 314T450 298T492 280T534 255T567 218T580 163Z"  />
<glyph unicode="&#xE0;" horiz-adv-x="495" d="M304 556L201 700H326L398 556H304ZM259 0L270 47Q248 21 216 5T144 -12Q117 -12 92 -4T48 22T18 63T7 121Q7 161 20 195T55 253T108 290T174 304Q216 304 252 290T313 244L323 291Q325 296 325 302T326 315Q326 343 301 359T237 376Q176 376 121 337L90 441Q128 470 176 482T272 495Q312 495 349 487T414 460T459 415T476 349Q476 341 474 327T470 300L404 0H259ZM214 84Q261 84 285 119L297 169Q287 187 268 197T222 208Q189 208 171 186T153 134Q153 109 169 97T214 84Z"  />
<glyph unicode="&#xE1;" horiz-adv-x="495" d="M336 556H240L377 700H503L336 556ZM259 0L270 47Q248 21 216 5T144 -12Q117 -12 92 -4T48 22T18 63T7 121Q7 161 20 195T55 253T108 290T174 304Q216 304 252 290T313 244L323 291Q325 296 325 302T326 315Q326 343 301 359T237 376Q176 376 121 337L90 441Q128 470 176 482T272 495Q312 495 349 487T414 460T459 415T476 349Q476 341 474 327T470 300L404 0H259ZM214 84Q261 84 285 119L297 169Q287 187 268 197T222 208Q189 208 171 186T153 134Q153 109 169 97T214 84Z"  />
<glyph unicode="&#xE2;" horiz-adv-x="495" d="M382 556L340 640L265 556H181L288 700H416L462 556H382ZM259 0L270 47Q248 21 216 5T144 -12Q117 -12 92 -4T48 22T18 63T7 121Q7 161 20 195T55 253T108 290T174 304Q216 304 252 290T313 244L323 291Q325 296 325 302T326 315Q326 343 301 359T237 376Q176 376 121 337L90 441Q128 470 176 482T272 495Q312 495 349 487T414 460T459 415T476 349Q476 341 474 327T470 300L404 0H259ZM214 84Q261 84 285 119L297 169Q287 187 268 197T222 208Q189 208 171 186T153 134Q153 109 169 97T214 84Z"  />
<glyph unicode="&#xE3;" horiz-adv-x="495" d="M381 554Q357 554 344 563T321 584T303 604T279 614Q253 614 243 560H168Q181 623 208 658T286 694Q310 694 323 685T347 664T365 644T389 634Q413 634 426 688H500Q486 625 459 590T381 554ZM259 0L270 47Q248 21 216 5T144 -12Q117 -12 92 -4T48 22T18 63T7 121Q7 161 20 195T55 253T108 290T174 304Q216 304 252 290T313 244L323 291Q325 296 325 302T326 315Q326 343 301 359T237 376Q176 376 121 337L90 441Q128 470 176 482T272 495Q312 495 349 487T414 460T459 415T476 349Q476 341 474 327T470 300L404 0H259ZM214 84Q261 84 285 119L297 169Q287 187 268 197T222 208Q189 208 171 186T153 134Q153 109 169 97T214 84Z"  />
<glyph unicode="&#xE4;" horiz-adv-x="495" d="M504 622Q504 605 497 590T479 564T452 546T420 539Q391 539 373 557T354 605Q354 621 361 636T379 663T406 681T438 688Q467 688 485 669T504 622ZM309 622Q309 605 302 590T283 564T256 546T224 539Q196 539 177 557T158 605Q158 621 165 636T184 663T211 681T242 688Q271 688 290 669T309 622ZM259 0L270 47Q248 21 216 5T144 -12Q117 -12 92 -4T48 22T18 63T7 121Q7 161 20 195T55 253T108 290T174 304Q216 304 252 290T313 244L323 291Q325 296 325 302T326 315Q326 343 301 359T237 376Q176 376 121 337L90 441Q128 470 176 482T272 495Q312 495 349 487T414 460T459 415T476 349Q476 341 474 327T470 300L404 0H259ZM214 84Q261 84 285 119L297 169Q287 187 268 197T222 208Q189 208 171 186T153 134Q153 109 169 97T214 84Z"  />
<glyph unicode="&#xE5;" horiz-adv-x="495" d="M327 545Q287 545 262 570T237 635Q237 657 246 677T270 713T305 737T348 746Q388 746 413 721T438 655Q438 633 429 613T405 578T370 554T327 545ZM334 607Q351 607 363 619T376 649Q376 665 367 674T342 684Q325 684 313 672T300 642Q300 627 309 617T334 607ZM259 0L270 47Q248 21 216 5T144 -12Q117 -12 92 -4T48 22T18 63T7 121Q7 161 20 195T55 253T108 290T174 304Q216 304 252 290T313 244L323 291Q325 296 325 302T326 315Q326 343 301 359T237 376Q176 376 121 337L90 441Q128 470 176 482T272 495Q312 495 349 487T414 460T459 415T476 349Q476 341 474 327T470 300L404 0H259ZM214 84Q261 84 285 119L297 169Q287 187 268 197T222 208Q189 208 171 186T153 134Q153 109 169 97T214 84Z"  />
<glyph unicode="&#xE6;" horiz-adv-x="777" d="M445 194Q444 191 444 187T444 178Q444 166 450 153T470 130T502 112T546 105Q569 105 596 113T645 138L689 42Q621 -12 532 -12Q469 -12 426 9T355 70Q316 33 267 11T157 -12Q127 -12 100 -3T52 23T19 65T7 124Q7 165 20 198T56 255T109 291T174 304Q216 304 254 289T313 245L323 291Q326 304 326 314Q326 343 301 359T237 376Q207 376 178 367T120 337L90 441Q130 470 177 482T271 495Q385 495 416 418Q444 450 484 472T577 495Q615 495 648 483T706 447T745 386T760 299Q760 273 755 243T744 194H445ZM629 293Q631 298 631 302T631 312Q631 340 611 359T557 378Q535 378 520 371T493 351T475 323T464 293H629ZM296 130Q295 134 295 139T295 150Q295 155 295 160T296 169Q287 189 266 198T222 208Q193 208 173 187T153 134Q153 108 169 96T214 84Q238 84 259 96T296 130Z"  />
<glyph unicode="&#xE7;" horiz-adv-x="432" d="M176 -197Q140 -197 112 -185T65 -156L102 -104Q116 -120 135 -129T176 -139Q195 -139 206 -130T217 -106Q217 -98 211 -92T194 -86Q179 -86 169 -99L125 -70L164 -4Q95 13 56 64T17 194Q17 252 36 306T91 403T174 470T281 495Q341 495 384 474T451 422L365 326Q352 346 332 356T288 367Q261 367 238 354T199 318T174 266T165 207Q165 162 191 139T255 116Q278 116 297 125T331 150L379 45Q356 22 318 5T230 -12H227L203 -50Q210 -44 215 -42T229 -40Q253 -40 269 -56T286 -102Q286 -145 255 -171T176 -197Z"  />
<glyph unicode="&#xE8;" horiz-adv-x="488" d="M236 -12Q135 -12 76 42T17 194Q17 248 35 302T88 398T170 468T278 495Q369 495 420 443T471 299Q471 270 466 240T456 194H156Q155 190 155 186T155 178Q155 168 160 156T178 132T209 113T257 105Q284 105 310 114T356 138L400 42Q368 16 324 2T236 -12ZM340 293Q342 298 342 302T342 312Q342 340 323 359T267 378Q247 378 231 371T203 351T184 323T174 293H339H340ZM306 556L203 700H328L400 556H306Z"  />
<glyph unicode="&#xE9;" horiz-adv-x="488" d="M236 -12Q135 -12 76 42T17 194Q17 248 35 302T88 398T170 468T278 495Q369 495 420 443T471 299Q471 270 466 240T456 194H156Q155 190 155 186T155 178Q155 168 160 156T178 132T209 113T257 105Q284 105 310 114T356 138L400 42Q368 16 324 2T236 -12ZM340 293Q342 298 342 302T342 312Q342 340 323 359T267 378Q247 378 231 371T203 351T184 323T174 293H339H340ZM337 556H241L378 700H504L337 556Z"  />
<glyph unicode="&#xEA;" horiz-adv-x="488" d="M236 -12Q135 -12 76 42T17 194Q17 248 35 302T88 398T170 468T278 495Q369 495 420 443T471 299Q471 270 466 240T456 194H156Q155 190 155 186T155 178Q155 168 160 156T178 132T209 113T257 105Q284 105 310 114T356 138L400 42Q368 16 324 2T236 -12ZM340 293Q342 298 342 302T342 312Q342 340 323 359T267 378Q247 378 231 371T203 351T184 323T174 293H339H340ZM379 556L337 640L262 556H178L285 700H413L459 556H379Z"  />
<glyph unicode="&#xEB;" horiz-adv-x="488" d="M236 -12Q135 -12 76 42T17 194Q17 248 35 302T88 398T170 468T278 495Q369 495 420 443T471 299Q471 270 466 240T456 194H156Q155 190 155 186T155 178Q155 168 160 156T178 132T209 113T257 105Q284 105 310 114T356 138L400 42Q368 16 324 2T236 -12ZM340 293Q342 298 342 302T342 312Q342 340 323 359T267 378Q247 378 231 371T203 351T184 323T174 293H339H340ZM504 622Q504 605 497 590T479 564T452 546T420 539Q391 539 373 557T354 605Q354 621 361 636T379 663T406 681T438 688Q467 688 485 669T504 622ZM309 622Q309 605 302 590T283 564T256 546T224 539Q196 539 177 557T158 605Q158 621 165 636T184 663T211 681T242 688Q271 688 290 669T309 622Z"  />
<glyph unicode="&#xEC;" horiz-adv-x="241" d="M175 556L72 700H197L269 556H175ZM-6 0L101 483H246L139 0H-6Z"  />
<glyph unicode="&#xED;" horiz-adv-x="241" d="M204 556H108L245 700H371L204 556ZM-6 0L101 483H246L139 0H-6Z"  />
<glyph unicode="&#xEE;" horiz-adv-x="241" d="M251 556L209 640L134 556H50L157 700H285L331 556H251ZM-6 0L101 483H246L139 0H-6Z"  />
<glyph unicode="&#xEF;" horiz-adv-x="241" d="M375 622Q375 605 368 590T350 564T323 546T291 539Q262 539 244 557T225 605Q225 621 232 636T250 663T277 681T309 688Q338 688 356 669T375 622ZM180 622Q180 605 173 590T154 564T127 546T95 539Q67 539 48 557T29 605Q29 621 36 636T55 663T82 681T113 688Q142 688 161 669T180 622ZM-6 0L101 483H246L139 0H-6Z"  />
<glyph unicode="&#xF0;" horiz-adv-x="508" d="M159 548L277 583Q266 599 255 614T233 642L353 716Q373 693 391 671T423 626L507 651L521 586L458 567Q504 474 504 373Q504 305 488 237T438 113T353 23T232 -12Q180 -12 140 2T72 42T30 104T15 184Q15 233 31 281T76 368T145 430T235 454Q287 454 319 428T365 358Q361 396 347 438T311 523L174 482L159 548ZM235 116Q258 116 276 128T308 161T328 205T335 253Q335 281 318 304T260 327Q237 327 219 314T189 280T169 236T162 189Q162 116 235 116Z"  />
<glyph unicode="&#xF1;" horiz-adv-x="519" d="M276 0L343 304Q345 309 345 315T346 326Q346 348 332 357T295 367Q270 367 249 351T213 316L143 0H-2L105 483H250L236 424Q260 450 295 472T378 495Q437 495 470 466T503 389Q503 384 502 373T499 356L421 0H276ZM391 554Q367 554 354 563T331 584T313 604T289 614Q263 614 253 560H178Q191 623 218 658T296 694Q320 694 333 685T357 664T375 644T399 634Q423 634 436 688H510Q496 625 469 590T391 554Z"  />
<glyph unicode="&#xF2;" horiz-adv-x="508" d="M229 -12Q177 -12 138 3T71 46T31 111T17 194Q17 248 35 302T87 399T169 468T278 495Q330 495 369 480T435 437T475 372T489 289Q489 235 471 181T419 84T337 15T229 -12ZM236 116Q261 116 281 133T314 177T335 233T342 287Q342 328 324 347T271 367Q246 367 226 350T193 306T172 250T164 196Q164 155 183 136T236 116ZM309 556L206 700H331L403 556H309Z"  />
<glyph unicode="&#xF3;" horiz-adv-x="508" d="M229 -12Q177 -12 138 3T71 46T31 111T17 194Q17 248 35 302T87 399T169 468T278 495Q330 495 369 480T435 437T475 372T489 289Q489 235 471 181T419 84T337 15T229 -12ZM236 116Q261 116 281 133T314 177T335 233T342 287Q342 328 324 347T271 367Q246 367 226 350T193 306T172 250T164 196Q164 155 183 136T236 116ZM338 556H242L379 700H505L338 556Z"  />
<glyph unicode="&#xF4;" horiz-adv-x="508" d="M229 -12Q177 -12 138 3T71 46T31 111T17 194Q17 248 35 302T87 399T169 468T278 495Q330 495 369 480T435 437T475 372T489 289Q489 235 471 181T419 84T337 15T229 -12ZM236 116Q261 116 281 133T314 177T335 233T342 287Q342 328 324 347T271 367Q246 367 226 350T193 306T172 250T164 196Q164 155 183 136T236 116ZM385 556L343 640L268 556H184L291 700H419L465 556H385Z"  />
<glyph unicode="&#xF5;" horiz-adv-x="508" d="M229 -12Q177 -12 138 3T71 46T31 111T17 194Q17 248 35 302T87 399T169 468T278 495Q330 495 369 480T435 437T475 372T489 289Q489 235 471 181T419 84T337 15T229 -12ZM236 116Q261 116 281 133T314 177T335 233T342 287Q342 328 324 347T271 367Q246 367 226 350T193 306T172 250T164 196Q164 155 183 136T236 116ZM385 554Q361 554 348 563T325 584T307 604T283 614Q257 614 247 560H172Q185 623 212 658T290 694Q314 694 327 685T351 664T369 644T393 634Q417 634 430 688H504Q490 625 463 590T385 554Z"  />
<glyph unicode="&#xF6;" horiz-adv-x="508" d="M229 -12Q177 -12 138 3T71 46T31 111T17 194Q17 248 35 302T87 399T169 468T278 495Q330 495 369 480T435 437T475 372T489 289Q489 235 471 181T419 84T337 15T229 -12ZM236 116Q261 116 281 133T314 177T335 233T342 287Q342 328 324 347T271 367Q246 367 226 350T193 306T172 250T164 196Q164 155 183 136T236 116ZM509 622Q509 605 502 590T484 564T457 546T425 539Q396 539 378 557T359 605Q359 621 366 636T384 663T411 681T443 688Q472 688 490 669T509 622ZM314 622Q314 605 307 590T288 564T261 546T229 539Q201 539 182 557T163 605Q163 621 170 636T189 663T216 681T247 688Q276 688 295 669T314 622Z"  />
<glyph unicode="&#xF7;" horiz-adv-x="443" d="M40 294L59 381H444L424 294H40ZM199 110Q174 110 157 127T140 170Q140 199 161 220T212 241Q237 241 254 224T271 181Q271 152 250 131T199 110ZM271 432Q246 432 229 449T211 492Q211 521 232 542T283 563Q308 563 325 546T343 503Q343 488 337 476T321 453T298 438T271 432Z"  />
<glyph unicode="&#xF8;" horiz-adv-x="508" d="M-27 0L47 76Q17 124 17 194Q17 248 35 302T87 399T169 468T278 495Q322 495 356 484T417 453L447 483H533L459 407Q489 357 489 289Q489 235 471 181T419 84T337 15T229 -12Q141 -12 88 30L58 0H-27ZM236 116Q261 116 281 133T314 177T335 233T342 287V288L187 131Q205 116 236 116ZM164 194L318 352Q300 367 271 367Q246 367 226 350T193 306T172 250T164 196V194Z"  />
<glyph unicode="&#xF9;" horiz-adv-x="519" d="M245 483L178 179Q177 174 176 169T175 158Q175 136 189 126T226 116Q251 116 272 132T309 167L379 483H523L416 0H272L285 59Q261 33 226 11T144 -12Q85 -12 52 17T18 94Q18 99 19 110T22 127L101 483H245ZM315 556L212 700H337L409 556H315Z"  />
<glyph unicode="&#xFA;" horiz-adv-x="519" d="M245 483L178 179Q177 174 176 169T175 158Q175 136 189 126T226 116Q251 116 272 132T309 167L379 483H523L416 0H272L285 59Q261 33 226 11T144 -12Q85 -12 52 17T18 94Q18 99 19 110T22 127L101 483H245ZM344 556H248L385 700H511L344 556Z"  />
<glyph unicode="&#xFB;" horiz-adv-x="519" d="M245 483L178 179Q177 174 176 169T175 158Q175 136 189 126T226 116Q251 116 272 132T309 167L379 483H523L416 0H272L285 59Q261 33 226 11T144 -12Q85 -12 52 17T18 94Q18 99 19 110T22 127L101 483H245ZM390 556L348 640L273 556H189L296 700H424L470 556H390Z"  />
<glyph unicode="&#xFC;" horiz-adv-x="519" d="M245 483L178 179Q177 174 176 169T175 158Q175 136 189 126T226 116Q251 116 272 132T309 167L379 483H523L416 0H272L285 59Q261 33 226 11T144 -12Q85 -12 52 17T18 94Q18 99 19 110T22 127L101 483H245ZM516 622Q516 605 509 590T491 564T464 546T432 539Q403 539 385 557T366 605Q366 621 373 636T391 663T418 681T450 688Q479 688 497 669T516 622ZM321 622Q321 605 314 590T295 564T268 546T236 539Q208 539 189 557T170 605Q170 621 177 636T196 663T223 681T254 688Q283 688 302 669T321 622Z"  />
<glyph unicode="&#xFD;" horiz-adv-x="519" d="M343 556H247L384 700H510L343 556ZM173 -196Q105 -196 52 -177T-34 -121L43 -20Q63 -47 98 -61T169 -75Q217 -75 241 -49T276 25L289 82Q265 56 230 34T149 12Q93 12 58 39T23 118Q23 124 24 132T27 150L101 483H246L183 202Q181 195 181 190T181 181Q181 158 195 149T232 139Q257 139 278 155T314 191L379 483H523L421 25Q398 -81 336 -138T173 -196Z"  />
<glyph unicode="&#xFE;" horiz-adv-x="519" d="M277 -12Q235 -12 202 5T151 58L98 -184H-46L141 667H286L233 427Q261 463 290 479T355 495Q424 495 463 450T503 314Q503 263 489 206T447 100T376 20T277 -12ZM246 116Q271 116 291 133T325 176T346 232T354 288Q354 325 335 346T284 367Q262 367 243 355T210 323L174 160Q183 140 202 128T246 116Z"  />
<glyph unicode="&#xFF;" horiz-adv-x="519" d="M513 622Q513 605 506 590T488 564T461 546T429 539Q400 539 382 557T363 605Q363 621 370 636T388 663T415 681T447 688Q476 688 494 669T513 622ZM318 622Q318 605 311 590T292 564T265 546T233 539Q205 539 186 557T167 605Q167 621 174 636T193 663T220 681T251 688Q280 688 299 669T318 622ZM173 -196Q105 -196 52 -177T-34 -121L43 -20Q63 -47 98 -61T169 -75Q217 -75 241 -49T276 25L289 82Q265 56 230 34T149 12Q93 12 58 39T23 118Q23 124 24 132T27 150L101 483H246L183 202Q181 195 181 190T181 181Q181 158 195 149T232 139Q257 139 278 155T314 191L379 483H523L421 25Q398 -81 336 -138T173 -196Z"  />
<glyph unicode="&#x152;" horiz-adv-x="868" d="M381 0L392 53Q364 20 326 4T245 -12Q200 -12 161 6T93 59T47 143T30 253Q30 330 55 406T124 542T230 639T366 677Q414 677 453 659T514 602L528 667H931L900 526H659L633 409H867L836 268H602L574 141H815L784 0H381ZM479 443Q469 489 441 511T374 534Q333 534 301 506T245 436T210 346T197 256Q197 199 225 165T302 131Q338 131 371 152T428 212L479 443Z"  />
<glyph unicode="&#x153;" horiz-adv-x="801" d="M475 194Q474 192 474 187T473 179Q473 167 479 154T497 130T528 112T573 105Q597 105 623 113T670 138L715 42Q683 16 641 2T553 -12Q491 -12 450 13T391 73Q359 38 322 13T227 -12Q127 -12 72 43T17 194Q17 248 35 302T86 399T168 468T276 495Q332 495 372 470T432 410Q461 444 500 469T594 495Q634 495 669 483T730 447T770 386T785 299Q785 271 780 243T770 194H475ZM655 293Q657 303 657 312Q657 338 640 358T585 378Q564 378 548 370T521 350T502 323T492 293H655ZM338 287Q338 325 320 346T268 367Q244 367 225 351T193 309T172 254T164 196Q164 160 181 138T234 116Q259 116 278 133T310 176T331 232T338 287Z"  />
<glyph unicode="&#x160;" horiz-adv-x="513" d="M309 728L263 872H343L385 788L460 872H544L437 728H309ZM238 -12Q156 -12 88 16T-16 92L78 212Q104 175 149 153T244 131Q279 131 297 149T316 191Q316 210 298 224T254 253T196 284T138 323T93 376T75 450Q75 495 92 536T142 608T220 659T323 678Q388 678 448 655T548 588L456 470Q428 502 388 518T310 535Q280 535 263 519T246 481Q246 463 264 449T308 420T366 389T423 350T468 297T486 224Q486 176 469 134T419 59T341 7T238 -12Z"  />
<glyph unicode="&#x161;" horiz-adv-x="426" d="M186 -12Q122 -12 67 11T-20 69L57 166Q66 155 80 144T113 123T151 107T193 101Q218 101 232 112T247 139Q247 152 232 161T195 180T147 200T99 227T62 267T47 325Q47 358 59 388T96 443T157 481T240 495Q294 495 344 476T429 421L356 327Q349 336 337 345T309 363T275 377T238 382Q214 382 201 373T188 348Q188 336 203 328T240 310T289 289T337 262T375 221T390 163Q390 128 376 96T336 40T272 2T186 -12ZM221 556L175 700H255L297 616L372 700H456L349 556H221Z"  />
<glyph unicode="&#x178;" horiz-adv-x="561" d="M575 796Q575 779 568 764T550 738T523 720T491 713Q462 713 444 731T425 779Q425 795 432 810T450 837T477 855T509 862Q538 862 556 843T575 796ZM380 796Q380 779 373 764T354 738T327 720T295 713Q267 713 248 731T229 779Q229 795 236 810T255 837T282 855T313 862Q342 862 361 843T380 796ZM146 0L206 271L85 667H255L312 419L478 667H662L367 271L308 0H146Z"  />
<glyph unicode="&#x17D;" horiz-adv-x="498" d="M293 728L247 872H327L369 788L444 872H528L421 728H293ZM-21 0L8 132L313 526H95L126 667H551L522 538L215 141H442L411 0H-21Z"  />
<glyph unicode="&#x17E;" horiz-adv-x="420" d="M-24 0L0 107L221 358H55L83 483H438L416 380L191 125H363L335 0H-24ZM212 556L166 700H246L288 616L363 700H447L340 556H212Z"  />
<glyph unicode="&#x192;" horiz-adv-x="441" d="M-50 -161L37 233H-7V360H65L101 522Q117 592 160 634T276 677Q308 677 342 669T402 639L353 519Q338 536 313 536Q292 536 278 522T258 483L231 360H318V233H203L115 -161H-50Z"  />
<glyph unicode="&#x2C6;" horiz-adv-x="281" d="M270 556L228 640L153 556H69L176 700H304L350 556H270Z"  />
<glyph unicode="&#x2DC;" horiz-adv-x="304" d="M283 554Q259 554 246 563T223 584T205 604T181 614Q155 614 145 560H70Q83 623 110 658T188 694Q212 694 225 685T249 664T267 644T291 634Q315 634 328 688H402Q388 625 361 590T283 554Z"  />
<glyph unicode="&#x2013;" horiz-adv-x="527" d="M16 181L43 303H509L483 181H16Z"  />
<glyph unicode="&#x2014;" horiz-adv-x="737" d="M16 181L43 303H719L693 181H16Z"  />
<glyph unicode="&#x2018;" horiz-adv-x="265" d="M86 465Q86 495 98 526T131 585T180 638T243 678L293 626Q279 620 264 611T235 592T209 568T190 542H201Q229 542 249 525T269 471Q269 451 261 434T239 404T208 384T171 376Q138 376 112 398T86 465Z"  />
<glyph unicode="&#x2019;" horiz-adv-x="265" d="M302 588Q302 558 290 527T257 468T208 415T145 375L95 428Q108 434 123 442T152 462T179 485T197 512Q195 511 192 511T186 511Q159 511 139 529T118 582Q118 601 126 618T148 649T180 669T216 677Q250 677 276 655T302 588Z"  />
<glyph unicode="&#x201A;" horiz-adv-x="265" d="M189 78Q189 48 177 17T144 -42T95 -94T32 -134L-18 -82Q-5 -76 10 -68T40 -48T66 -25T85 2Q83 1 79 1T73 1Q46 1 26 19T5 73Q5 92 13 109T36 139T67 159T104 167Q137 167 163 145T189 78Z"  />
<glyph unicode="&#x201C;" horiz-adv-x="483" d="M304 465Q304 495 316 526T349 585T398 638T461 678L511 626Q498 620 483 611T453 592T427 568T409 542H420Q447 542 467 525T488 471Q488 451 480 434T458 404T426 384T390 376Q357 376 331 398T304 465ZM87 465Q87 495 99 526T132 585T181 638T244 678L294 626Q281 620 266 611T236 592T210 568T191 542H203Q230 542 250 525T271 471Q271 451 263 434T240 404T209 384T172 376Q139 376 113 398T87 465Z"  />
<glyph unicode="&#x201D;" horiz-adv-x="483" d="M302 588Q302 558 290 527T257 468T208 415T145 375L95 428Q108 434 123 442T152 462T179 485T197 512Q195 511 192 511T186 511Q159 511 139 529T118 582Q118 601 126 618T148 649T180 669T216 677Q250 677 276 655T302 588ZM519 588Q519 558 507 527T474 468T425 415T362 375L312 428Q325 434 340 442T370 462T396 485T415 512Q413 511 409 511T403 511Q376 511 356 529T335 582Q335 601 343 618T366 649T397 669T434 677Q467 677 493 655T519 588Z"  />
<glyph unicode="&#x201E;" horiz-adv-x="483" d="M189 78Q189 48 177 17T144 -42T95 -94T32 -134L-18 -82Q-5 -76 10 -68T40 -48T66 -25T85 2Q83 1 79 1T73 1Q46 1 26 19T5 73Q5 92 13 109T36 139T67 159T104 167Q137 167 163 145T189 78ZM406 78Q406 48 394 17T361 -42T312 -94T249 -134L199 -82Q212 -76 227 -68T257 -48T283 -25T302 2Q300 1 296 1T290 1Q263 1 243 19T222 73Q222 92 230 109T253 139T284 159T321 167Q354 167 380 145T406 78Z"  />
<glyph unicode="&#x2020;" horiz-adv-x="282" d="M235 523L196 327H121L169 523L79 519L94 587L183 584L199 677H274L249 584L338 587L323 519L235 523Z"  />
<glyph unicode="&#x2021;" horiz-adv-x="282" d="M323 519L235 523L193 335L283 339L268 271L180 274L163 180H88L114 274L24 271L39 339L127 335L169 523L79 519L94 587L182 584L199 677H274L249 584L338 587L323 519Z"  />
<glyph unicode="&#x2022;" horiz-adv-x="358" d="M302 254Q302 227 291 203T262 160T218 132T166 121Q118 121 87 152T56 231Q56 258 67 282T96 325T140 353T192 364Q240 364 271 333T302 254Z"  />
<glyph unicode="&#x2026;" horiz-adv-x="792" d="M87 -12Q52 -12 29 12T6 70Q6 90 14 107T35 138T65 159T103 167Q138 167 161 143T185 85Q185 65 177 48T156 17T125 -4T87 -12ZM351 -12Q317 -12 294 12T270 70Q270 90 278 107T299 138T329 159T367 167Q402 167 425 143T449 85Q449 65 441 48T420 17T389 -4T351 -12ZM615 -12Q581 -12 558 12T534 70Q534 90 542 107T563 138T594 159T632 167Q666 167 689 143T713 85Q713 65 705 48T684 17T653 -4T615 -12Z"  />
<glyph unicode="&#x2030;" horiz-adv-x="1010" d="M76 0L577 667H648L146 0H76ZM473 -12Q443 -12 417 -3T372 24T342 66T331 121Q331 164 345 201T383 265T438 307T505 322Q535 322 561 313T606 285T636 243T647 188Q647 145 633 109T594 45T539 3T473 -12ZM478 75Q491 75 504 83T527 105T544 138T550 179Q550 205 537 219T500 234Q486 234 474 226T451 205T434 172T428 130Q428 104 441 90T478 75ZM216 343Q186 343 160 352T115 380T85 422T74 477Q74 520 88 557T126 620T181 662T248 677Q278 677 304 668T349 641T379 599T390 544Q390 500 376 464T337 400T282 358T216 343ZM221 431Q234 431 247 439T270 460T287 493T293 535Q293 561 280 575T243 590Q229 590 217 582T194 560T177 527T171 486Q171 460 184 446T221 431ZM800 -12Q770 -12 744 -3T699 24T670 66T659 121Q659 164 673 201T711 265T766 307T832 322Q862 322 888 313T933 285T963 243T974 188Q974 145 960 109T921 45T866 3T800 -12ZM805 75Q819 75 832 83T855 105T871 138T877 179Q877 205 864 219T827 234Q813 234 801 226T778 205T761 172T755 130Q755 104 768 90T805 75Z"  />
<glyph unicode="&#x2039;" horiz-adv-x="305" d="M114 63L29 243L194 420H317L148 239L231 63H114Z"  />
<glyph unicode="&#x203A;" horiz-adv-x="305" d="M192 420L277 240L112 63H-11L158 245L75 420H192Z"  />
<glyph unicode="&#x20AC;" horiz-adv-x="594" d="M322 -12Q266 -12 220 4T139 50T83 124T56 221H11L30 308H58Q60 321 61 334T66 360H41L61 448H92Q112 497 142 539T212 612T298 660T402 678Q461 678 503 660T575 613T622 546T646 470L494 430Q486 476 461 505T394 535Q357 535 326 511T272 448H430L410 360H235Q232 347 230 334T225 308H398L379 221H224Q232 179 260 155T330 131Q362 131 392 151T443 209L571 141Q524 62 459 25T322 -12Z"  />
<glyph unicode="&#x2122;" horiz-adv-x="414" d="M396 447L436 629L331 447H323L298 629L258 447H230L278 667H321L341 509L429 667H472L424 447H396ZM185 641L142 447H114L157 641H105L110 667H242L237 641H185Z"  />


</font>
</defs>
</svg>
